<?xml version="1.0" encoding="UTF-8" standalone="no"?><!DOCTYPE svg PUBLIC "-//W3C//DTD SVG 1.1//EN" "http://www.w3.org/Graphics/SVG/1.1/DTD/svg11.dtd"><svg width="100%" height="100%" viewBox="0 0 450 95" version="1.1" xmlns="http://www.w3.org/2000/svg" xmlns:xlink="http://www.w3.org/1999/xlink" xml:space="preserve" xmlns:serif="http://www.serif.com/" style="fill-rule:evenodd;clip-rule:evenodd;stroke-linecap:round;stroke-linejoin:round;stroke-miterlimit:1.5;"><g><path d="M81.641,66.912l16.176,-49.821l12.731,0.052" style="fill:none;stroke:#fe4a49;stroke-width:7px;"/><path d="M37.621,67.1c2.634,-0.706 5.412,1.109 6.2,4.05c0.788,2.94 -0.711,5.901 -3.344,6.606c-2.634,0.706 -5.412,-1.109 -6.2,-4.049c-0.787,-2.941 0.711,-5.901 3.344,-6.607Z" style="fill:none;stroke:#461514;stroke-width:7px;"/><path d="M78.523,67.1c2.633,-0.706 5.411,1.109 6.199,4.05c0.788,2.94 -0.71,5.901 -3.344,6.606c-2.634,0.706 -5.411,-1.109 -6.199,-4.049c-0.788,-2.941 0.71,-5.901 3.344,-6.607Z" style="fill:none;stroke:#461514;stroke-width:7px;"/><path d="M13.718,38.312l52.208,0" style="fill:none;stroke:#461514;stroke-width:7px;stroke-linejoin:miter;"/><path d="M23.199,53.268l52.607,0" style="fill:none;stroke:#461514;stroke-width:7px;"/><path d="M7.037,25.618l87.79,0l-13.186,41.294l-52.657,0l-21.947,-41.294Z" style="fill:none;stroke:#fe4a49;stroke-width:7px;"/></g><g><path d="M137.672,64.675c-0.299,1.274 -0.946,2.191 -1.942,2.751c-0.996,0.56 -2.029,0.82 -3.099,0.782c-1.071,-0.039 -2.017,-0.377 -2.838,-1.014c-0.822,-0.637 -1.232,-1.515 -1.232,-2.635l0,-28.304c0,-0.579 0.211,-1.11 0.634,-1.592c0.424,-0.483 0.959,-0.878 1.606,-1.187c0.647,-0.309 1.357,-0.512 2.128,-0.608c0.772,-0.097 1.482,-0.078 2.129,0.058c0.647,0.135 1.207,0.424 1.68,0.868c0.473,0.444 0.735,1.052 0.784,1.824c0.15,3.012 0.123,2.617 0.19,5.206c0.062,2.393 0.009,5.395 -0.04,7.828c1.145,-0.657 2.228,-1.342 3.248,-2.056c1.021,-0.715 2.029,-1.458 3.025,-2.23c0.896,-0.733 1.767,-1.554 2.614,-2.461c0.846,-0.907 1.917,-1.535 3.211,-1.882c0.946,-0.232 1.83,-0.27 2.651,-0.116c0.822,0.154 1.519,0.454 2.091,0.898c0.573,0.444 0.959,0.984 1.158,1.621c0.199,0.637 0.149,1.322 -0.149,2.056c-0.249,0.54 -0.809,1.216 -1.681,2.027c-0.871,0.811 -1.842,1.641 -2.912,2.49c-1.071,0.849 -2.129,1.631 -3.174,2.345c-1.046,0.715 -1.892,1.265 -2.539,1.651c1.742,1.467 3.46,2.953 5.153,4.459c1.692,1.506 3.41,3.011 5.153,4.517c0.746,0.657 1.592,1.193 2.09,1.927c0.398,0.618 0.523,1.255 0.373,1.911c-0.149,0.656 -0.485,1.226 -1.008,1.708c-0.523,0.483 -1.17,0.84 -1.942,1.072c-0.771,0.231 -1.605,0.251 -2.501,0.058c-0.847,-0.193 -1.668,-0.551 -2.465,-1.072c-0.796,-0.521 -1.556,-1.09 -2.278,-1.708c-0.722,-0.618 -1.505,-1.406 -2.053,-1.869c-1.344,-1.197 -2.676,-2.384 -3.995,-3.561c-1.32,-1.178 -2.676,-2.327 -4.07,-3.446l0,7.684Z" style="fill:#461514;fill-rule:nonzero;"/><path d="M194.43,63.98c0.398,1.12 0.323,2.046 -0.224,2.78c-0.548,0.733 -1.307,1.226 -2.278,1.477c-0.971,0.251 -2.029,0.222 -3.174,-0.087c-1.145,-0.309 -2.141,-0.927 -2.987,-1.853c-1.395,0.81 -2.751,1.38 -4.071,1.708c-1.319,0.328 -2.825,0.512 -4.518,0.55c-2.539,0.077 -4.804,-0.145 -6.796,-0.666c-1.991,-0.521 -3.672,-1.303 -5.041,-2.345c-1.369,-1.043 -2.377,-2.346 -3.024,-3.909c-0.648,-1.564 -0.872,-3.369 -0.673,-5.415c0.1,-0.849 0.287,-1.679 0.561,-2.49c0.273,-0.811 0.585,-1.602 0.933,-2.375c0.398,-0.849 0.958,-1.756 1.68,-2.721c0.722,-0.966 1.457,-1.796 2.203,-2.491c2.689,-2.548 6.05,-4.382 10.082,-5.501c0.698,-0.193 1.643,-0.367 2.838,-0.521c1.195,-0.155 2.403,-0.222 3.622,-0.203c1.22,0.019 2.39,0.145 3.51,0.376c1.121,0.232 1.955,0.637 2.502,1.217c0.448,0.463 0.772,0.868 0.971,1.216c0.199,0.347 0.311,0.714 0.336,1.1c0.025,0.386 0.025,0.801 0,1.245c-0.025,0.444 -0.037,0.994 -0.037,1.651c0,1.081 -0.013,2.133 -0.037,3.156c-0.025,1.023 -0.013,2.056 0.037,3.098l0,1.361c0,0.56 0.025,1.148 0.075,1.766c0.049,0.618 0.112,1.207 0.186,1.766c0.075,0.56 0.187,1.014 0.336,1.361l2.988,4.749Zm-15.833,-2.606c0.548,-0.27 1.17,-0.569 1.867,-0.897c0.697,-0.329 1.32,-0.705 1.867,-1.13c-0.448,-2.046 -0.709,-4.092 -0.784,-6.138c-0.075,-2.047 -0.062,-4.112 0.037,-6.197c-2.24,0.309 -4.256,1.062 -6.049,2.259c-1.792,1.196 -3.037,2.606 -3.734,4.227c-0.299,0.657 -0.548,1.332 -0.747,2.027c-0.199,0.695 -0.274,1.371 -0.224,2.027c0.05,0.888 0.349,1.631 0.896,2.23c0.548,0.598 1.208,1.052 1.979,1.36c0.772,0.309 1.594,0.483 2.465,0.522c0.871,0.038 1.68,-0.058 2.427,-0.29Z" style="fill:#461514;fill-rule:nonzero;"/><path d="M200.703,48.807c0,0.155 0.025,0.107 0.075,-0.144c0.049,-0.251 0.024,-0.705 -0.075,-1.361c-0.797,-0.348 -1.419,-0.792 -1.867,-1.332c-0.448,-0.541 -0.71,-1.12 -0.784,-1.738c-0.075,-0.617 0.074,-1.206 0.448,-1.766c0.373,-0.56 0.983,-1.033 1.829,-1.419c1.146,-0.502 2.403,-0.598 3.772,-0.289c1.369,0.309 2.551,0.772 3.547,1.39c1.245,-0.734 2.539,-1.352 3.884,-1.854c1.344,-0.502 2.713,-0.839 4.107,-1.013c1.394,-0.174 2.813,-0.145 4.257,0.087c1.444,0.231 2.863,0.714 4.257,1.448c0.697,0.347 1.344,0.781 1.942,1.303c0.597,0.521 0.97,1.11 1.12,1.766c0.249,0.965 0.149,1.805 -0.299,2.519c-0.448,0.714 -1.07,1.235 -1.867,1.564c-0.797,0.328 -1.693,0.424 -2.689,0.289c-0.995,-0.135 -1.941,-0.55 -2.837,-1.245c-0.299,-0.154 -0.511,-0.28 -0.635,-0.376c-0.125,-0.097 -0.386,-0.222 -0.784,-0.377c-0.797,-0.154 -1.581,-0.116 -2.353,0.116c-0.772,0.232 -1.518,0.55 -2.24,0.956c-0.722,0.405 -1.394,0.849 -2.017,1.332c-0.622,0.482 -1.182,0.917 -1.68,1.303l0,14.767c0,0.579 -0.149,1.139 -0.448,1.679c-0.448,0.888 -1.158,1.506 -2.129,1.854c-0.97,0.347 -1.941,0.444 -2.912,0.289c-0.971,-0.154 -1.817,-0.54 -2.539,-1.158c-0.722,-0.618 -1.083,-1.409 -1.083,-2.374l0,-16.216Z" style="fill:#461514;fill-rule:nonzero;"/><path d="M241.628,64.907c-0.099,0.772 -0.448,1.457 -1.045,2.056c-0.598,0.598 -1.282,1.032 -2.054,1.303c-0.772,0.27 -1.606,0.328 -2.502,0.173c-0.896,-0.154 -1.693,-0.579 -2.39,-1.274c-0.398,-0.386 -0.684,-0.82 -0.858,-1.303c-0.175,-0.482 -0.287,-0.984 -0.337,-1.505c-0.049,-0.522 -0.062,-1.043 -0.037,-1.564c0.025,-0.521 0.037,-0.994 0.037,-1.419c-0.049,-2.278 -0.062,-4.536 -0.037,-6.775c0.025,-2.24 0.013,-4.498 -0.037,-6.776c0,-0.927 -0.075,-1.863 -0.224,-2.809c-0.15,-0.946 -0.075,-1.882 0.224,-2.809c0.249,-0.694 0.684,-1.293 1.307,-1.795c0.622,-0.502 1.319,-0.849 2.091,-1.042c0.771,-0.193 1.568,-0.213 2.39,-0.058c0.821,0.154 1.531,0.56 2.128,1.216c0.797,0.772 1.195,1.535 1.195,2.288l0,6.688c0,1.313 0.025,2.606 0.075,3.88c0.049,1.854 0.074,3.707 0.074,5.56l0,5.965Zm-9.805,-33.077c0.199,-1.429 0.781,-2.355 1.852,-3.031c1.07,-0.676 4.169,-0.242 5.361,-0.322c1.682,-0.114 2.578,-0.806 7.599,-3.114c0.519,-0.239 -4.533,7.619 -8.308,9.433c-1.126,0.541 -3.37,1.136 -4.466,0.518c-1.095,-0.618 -1.767,-1.602 -2.016,-2.953l-0.022,-0.531Z" style="fill:#461514;fill-rule:nonzero;"/><path d="M248.126,62.648c-0.299,-0.656 -0.424,-1.303 -0.374,-1.94c0.05,-0.637 0.262,-1.216 0.635,-1.737c0.373,-0.521 0.909,-0.927 1.606,-1.216c0.697,-0.29 1.543,-0.396 2.539,-0.319c0.547,0.039 1.045,0.155 1.493,0.348c0.448,0.193 0.859,0.424 1.233,0.695c0.373,0.27 0.746,0.559 1.12,0.868c0.373,0.309 0.759,0.579 1.157,0.811c0.847,0.502 1.743,0.869 2.689,1.1c0.946,0.232 1.942,0.406 2.987,0.522c0.697,0 1.257,-0.136 1.681,-0.406c0.423,-0.27 0.709,-0.598 0.858,-0.984c0.15,-0.386 0.187,-0.801 0.112,-1.245c-0.074,-0.444 -0.261,-0.802 -0.56,-1.072c-0.846,-0.656 -1.879,-1.081 -3.099,-1.274c-1.22,-0.193 -2.352,-0.425 -3.398,-0.695c-1.494,-0.386 -2.962,-0.878 -4.406,-1.477c-1.444,-0.598 -2.614,-1.418 -3.51,-2.461c-0.946,-1.081 -1.506,-2.229 -1.681,-3.446c-0.174,-1.216 -0.049,-2.403 0.374,-3.561c0.423,-1.158 1.132,-2.22 2.128,-3.185c0.996,-0.965 2.191,-1.757 3.585,-2.375c1.045,-0.463 2.191,-0.762 3.435,-0.897c1.245,-0.135 2.502,-0.164 3.772,-0.087c1.269,0.077 2.526,0.261 3.771,0.55c1.245,0.29 2.39,0.608 3.435,0.956c1.195,0.424 2.092,1.023 2.689,1.795c0.597,0.772 0.884,1.554 0.859,2.345c-0.025,0.792 -0.374,1.477 -1.046,2.056c-0.672,0.579 -1.655,0.869 -2.95,0.869c-0.796,0 -1.518,-0.106 -2.165,-0.319c-0.648,-0.212 -1.32,-0.415 -2.017,-0.608c-0.896,-0.27 -1.867,-0.453 -2.912,-0.55c-1.046,-0.096 -1.892,-0.048 -2.54,0.145c-0.199,0.038 -0.423,0.164 -0.672,0.376c-0.249,0.213 -0.435,0.473 -0.56,0.782c-0.124,0.309 -0.149,0.618 -0.074,0.927c0.074,0.309 0.336,0.56 0.784,0.753c1.195,0.501 2.464,0.888 3.808,1.158c1.345,0.27 2.664,0.579 3.959,0.926c1.294,0.348 2.501,0.792 3.622,1.332c1.12,0.541 2.053,1.313 2.8,2.317c1.096,1.467 1.656,3.002 1.681,4.604c0.024,1.602 -0.386,3.098 -1.233,4.488c-0.846,1.39 -2.091,2.577 -3.734,3.561c-1.643,0.985 -3.56,1.574 -5.75,1.767c-1.544,0.116 -3.062,0.048 -4.556,-0.203c-1.493,-0.251 -2.937,-0.656 -4.331,-1.216c-1.394,-0.56 -2.689,-1.226 -3.884,-1.998c-1.195,-0.772 -2.24,-1.583 -3.136,-2.432l-0.224,-0.348Z" style="fill:#461514;fill-rule:nonzero;"/><path d="M298.685,49.966l0,-0.811c-0.448,-0.888 -1.17,-1.516 -2.166,-1.882c-0.996,-0.367 -2.066,-0.589 -3.211,-0.666c-0.647,0.154 -1.17,0.328 -1.569,0.521c-0.398,0.193 -0.746,0.405 -1.045,0.637c-0.299,0.232 -0.573,0.492 -0.822,0.782c-0.248,0.289 -0.547,0.589 -0.896,0.897l0,15.173c0,1.197 -0.46,2.133 -1.381,2.809c-0.921,0.676 -1.942,1.062 -3.062,1.158c-1.12,0.097 -2.154,-0.116 -3.1,-0.637c-0.946,-0.521 -1.443,-1.399 -1.493,-2.635c-0.1,-2.973 -0.137,-6.351 -0.112,-10.134c0.025,-3.784 0.037,-8.011 0.037,-12.683c0,-0.811 0.311,-1.486 0.934,-2.027c0.622,-0.54 1.369,-0.907 2.24,-1.1c0.871,-0.193 1.768,-0.184 2.689,0.029c0.921,0.212 1.68,0.646 2.277,1.303c2.789,-1.081 5.564,-1.419 8.327,-1.014c2.764,0.406 5.265,1.419 7.506,3.041c0.996,-0.772 2.066,-1.467 3.211,-2.085c1.145,-0.618 2.39,-1.023 3.734,-1.216c1.544,-0.193 3.1,-0.145 4.668,0.144c1.568,0.29 3.024,0.763 4.369,1.419c1.344,0.657 2.526,1.467 3.547,2.433c1.021,0.965 1.78,2.007 2.278,3.127c0.249,0.772 0.373,1.467 0.373,2.085l0,15.752c0,0.463 -0.074,0.907 -0.224,1.331c-0.448,1.004 -1.157,1.709 -2.128,2.114c-0.971,0.406 -1.967,0.55 -2.987,0.435c-1.021,-0.116 -1.905,-0.483 -2.652,-1.101c-0.746,-0.617 -1.12,-1.448 -1.12,-2.49l0,-15.578c-0.448,-0.927 -1.095,-1.602 -1.942,-2.027c-0.846,-0.425 -1.717,-0.618 -2.613,-0.579c-0.897,0.039 -1.755,0.289 -2.577,0.753c-0.821,0.463 -1.481,1.1 -1.979,1.911l0,15.173c0,1.042 -0.436,1.911 -1.307,2.606c-0.871,0.695 -1.83,1.139 -2.875,1.332c-1.046,0.193 -2.029,0.115 -2.95,-0.232c-0.921,-0.348 -1.456,-1.042 -1.606,-2.085l-0.373,-15.983Z" style="fill:#461514;fill-rule:nonzero;"/><path d="M364.33,63.98c0.398,1.12 0.323,2.046 -0.224,2.78c-0.548,0.733 -1.307,1.226 -2.278,1.477c-0.971,0.251 -2.029,0.222 -3.174,-0.087c-1.145,-0.309 -2.141,-0.927 -2.987,-1.853c-1.394,0.81 -2.751,1.38 -4.07,1.708c-1.32,0.328 -2.826,0.512 -4.519,0.55c-2.539,0.077 -4.804,-0.145 -6.796,-0.666c-1.991,-0.521 -3.671,-1.303 -5.041,-2.345c-1.369,-1.043 -2.377,-2.346 -3.024,-3.909c-0.647,-1.564 -0.871,-3.369 -0.672,-5.415c0.099,-0.849 0.286,-1.679 0.56,-2.49c0.274,-0.811 0.585,-1.602 0.933,-2.375c0.399,-0.849 0.959,-1.756 1.681,-2.721c0.722,-0.966 1.456,-1.796 2.203,-2.491c2.688,-2.548 6.049,-4.382 10.082,-5.501c0.697,-0.193 1.643,-0.367 2.838,-0.521c1.195,-0.155 2.402,-0.222 3.622,-0.203c1.219,0.019 2.39,0.145 3.51,0.376c1.12,0.232 1.954,0.637 2.502,1.217c0.448,0.463 0.771,0.868 0.97,1.216c0.2,0.347 0.312,0.714 0.336,1.1c0.025,0.386 0.025,0.801 0,1.245c-0.024,0.444 -0.037,0.994 -0.037,1.651c0,1.081 -0.012,2.133 -0.037,3.156c-0.025,1.023 -0.013,2.056 0.037,3.098l0,1.361c0,0.56 0.025,1.148 0.075,1.766c0.05,0.618 0.112,1.207 0.187,1.766c0.074,0.56 0.186,1.014 0.336,1.361l2.987,4.749Zm-15.833,-2.606c0.548,-0.27 1.17,-0.569 1.867,-0.897c0.697,-0.329 1.32,-0.705 1.867,-1.13c-0.448,-2.046 -0.709,-4.092 -0.784,-6.138c-0.074,-2.047 -0.062,-4.112 0.038,-6.197c-2.241,0.309 -4.257,1.062 -6.05,2.259c-1.792,1.196 -3.037,2.606 -3.734,4.227c-0.298,0.657 -0.547,1.332 -0.746,2.027c-0.2,0.695 -0.274,1.371 -0.224,2.027c0.049,0.888 0.348,1.631 0.896,2.23c0.547,0.598 1.207,1.052 1.979,1.36c0.771,0.309 1.593,0.483 2.464,0.522c0.872,0.038 1.681,-0.058 2.427,-0.29Z" style="fill:#461514;fill-rule:nonzero;"/><path d="M385.017,68.034c-1.444,0.039 -2.826,-0.039 -4.145,-0.232c-1.32,-0.193 -2.627,-0.521 -3.921,-0.984c-0.647,0.27 -1.282,0.405 -1.904,0.405c-0.623,0 -1.195,-0.077 -1.718,-0.231c-0.523,-0.155 -0.971,-0.338 -1.344,-0.551c-0.374,-0.212 -0.635,-0.376 -0.784,-0.492c-0.548,-0.618 -0.872,-1.313 -0.971,-2.085c-0.1,-0.772 0.224,-1.505 0.971,-2.2l0,-29.767c0,-0.888 0.398,-1.631 1.194,-2.229c0.797,-0.599 1.718,-0.975 2.764,-1.13c1.045,-0.154 2.053,-0.019 3.024,0.406c0.971,0.424 1.631,1.197 1.979,2.316c0.199,0.695 0.361,1.38 0.486,2.056c0.124,0.676 0.199,1.458 0.224,2.345c0.025,0.888 0.025,1.912 0,3.07c-0.025,1.158 -0.087,2.586 -0.187,4.285c0.448,-0.193 0.909,-0.376 1.382,-0.55c0.473,-0.174 0.958,-0.357 1.456,-0.55c1.394,-0.502 2.888,-0.811 4.481,-0.927c1.593,-0.115 3.149,-0.048 4.667,0.203c1.519,0.251 2.938,0.714 4.257,1.39c1.32,0.676 2.403,1.554 3.249,2.635c1.195,1.544 2.004,3.349 2.427,5.415c0.423,2.065 0.423,4.111 0,6.138c-0.423,2.027 -1.294,3.909 -2.614,5.647c-1.319,1.737 -3.174,3.03 -5.564,3.88c-1.493,0.54 -3.024,0.955 -4.592,1.245c-1.569,0.289 -3.174,0.453 -4.817,0.492Zm-4.705,-14.825l0,6.949l0.597,0.347c4.481,1.159 8.364,0.367 11.65,-2.374c0.747,-1.544 1.108,-3.002 1.083,-4.372c-0.025,-1.371 -0.361,-2.848 -1.008,-4.43c-0.249,-0.464 -0.66,-0.763 -1.232,-0.898c-0.573,-0.135 -1.083,-0.299 -1.531,-0.492c-0.797,-0.116 -1.656,0 -2.577,0.347c-0.921,0.348 -1.804,0.782 -2.651,1.303c-0.846,0.521 -1.618,1.091 -2.315,1.709c-0.697,0.617 -1.245,1.138 -1.643,1.563l-0.373,0.348Z" style="fill:#461514;fill-rule:nonzero;"/><path d="M407.645,52.687c0.349,-1.119 0.834,-2.22 1.456,-3.301c0.623,-1.081 1.382,-2.113 2.278,-3.098c0.896,-0.984 1.905,-1.882 3.025,-2.693c1.12,-0.81 2.327,-1.467 3.622,-1.969c2.29,-0.926 4.593,-1.399 6.908,-1.418c2.315,-0.02 4.468,0.337 6.46,1.071c1.991,0.733 3.684,1.824 5.078,3.272c1.394,1.448 2.315,3.175 2.763,5.183c0.249,1.313 0.386,2.558 0.411,3.735c0.025,1.178 -0.137,2.404 -0.485,3.678c-0.498,1.814 -1.506,3.619 -3.025,5.414c-1.518,1.796 -3.336,3.301 -5.452,4.517c-2.116,1.217 -4.431,2.018 -6.945,2.404c-2.514,0.386 -5.041,0.077 -7.58,-0.927c-1.145,-0.425 -2.178,-0.917 -3.1,-1.477c-0.921,-0.559 -1.755,-1.225 -2.501,-1.998c-0.847,-0.849 -1.506,-1.737 -1.979,-2.663c-0.473,-0.927 -0.859,-1.892 -1.158,-2.896c-0.348,-1.081 -0.473,-2.172 -0.373,-3.272c0.099,-1.1 0.273,-2.172 0.522,-3.214l0.075,-0.348Zm8.962,1.217c-0.15,0.617 -0.274,1.225 -0.374,1.824c-0.099,0.598 -0.099,1.206 0,1.824c0.15,0.888 0.461,1.699 0.934,2.432c0.473,0.734 1.095,1.313 1.867,1.738c0.772,0.424 1.655,0.646 2.651,0.666c0.996,0.019 2.066,-0.222 3.211,-0.724c1.444,-0.657 2.689,-1.67 3.735,-3.041c1.045,-1.37 1.692,-2.799 1.941,-4.285c0.249,-1.486 0.05,-2.896 -0.597,-4.228c-0.647,-1.332 -1.917,-2.287 -3.809,-2.866c-1.245,0 -2.39,0.183 -3.435,0.55c-1.046,0.367 -1.954,0.849 -2.726,1.448c-0.772,0.598 -1.444,1.303 -2.017,2.113c-0.572,0.811 -1.033,1.661 -1.381,2.549Z" style="fill:#461514;fill-rule:nonzero;"/></g><path d="M42.788,87.796c-0.147,0.02 -0.405,0.045 -0.606,0.121c-0.096,0.036 -0.166,0.066 -0.226,0.11c-0.029,0.022 -0.077,0.062 -0.109,0.123c-0.034,0.063 -0.063,0.168 -0.07,0.202c-0.041,0.18 -0.023,0.349 0.114,0.495c0.011,0.011 0.076,0.053 0.134,0.082c0.06,0.03 0.114,0.048 0.149,0.06c2.365,0.828 5.147,1.186 7.862,1.622c20.694,3.857 31.405,3.651 39.744,2.255c0.582,-0.098 3.018,-1.029 3.593,-1.386c4.488,-2.791 5.942,-5.456 7.002,-7.349c0.16,-0.286 0.932,-2.391 0.932,-2.391l1.632,-5.521c0,0 1.018,-3.04 1.121,-3.289c0.535,-1.3 0.115,-1.171 -0.375,-0.857c-0.178,0.114 -0.666,0.412 -0.892,0.585c-0.603,0.462 -2.043,1.898 -5.236,6.616c-1.935,3.52 -12.954,6.999 -33.472,7.601c-8.882,0.261 -16.006,0.179 -21.297,0.921Z" style="fill:#461514;"/></svg>